<?xml version="1.0" encoding="iso-8859-1"?>
<!-- Generator: Adobe Illustrator 19.0.0, SVG Export Plug-In . SVG Version: 6.00 Build 0)  -->
<svg xmlns="http://www.w3.org/2000/svg" xmlns:xlink="http://www.w3.org/1999/xlink" version="1.1" id="Capa_1" x="0px" y="0px" viewBox="0 0 512.001 512.001" style="enable-background:new 0 0 512.001 512.001;" xml:space="preserve" width="64px" height="64px">
<g>
	<g>
		<path d="M326.511,155.64c-21.034-7.188-43.356-10.832-66.349-10.832c-5.545,0-10.039,4.495-10.039,10.039    c0,5.544,4.494,10.039,10.039,10.039c20.779,0,40.917,3.282,59.856,9.754c1.076,0.367,2.17,0.542,3.248,0.542    c4.174,0,8.073-2.624,9.499-6.796C334.557,163.139,331.757,157.433,326.511,155.64z" fill="#FFFFFF"/>
	</g>
</g>
<g>
	<g>
		<path d="M401.684,224.584c-13.794-13.794-31.673-21.922-50.34-22.887c-19.06-0.975-36.65,5.572-49.537,18.458    c-12.888,12.888-19.444,30.481-18.461,49.539c0.964,18.667,9.092,36.546,22.886,50.339c13.79,13.795,31.667,21.925,50.338,22.889    c1.251,0.064,2.494,0.097,3.731,0.097c17.616,0,33.769-6.514,45.81-18.556C432.428,298.147,430.441,253.342,401.684,224.584z     M391.916,310.265c-8.816,8.815-21.001,13.299-34.31,12.606c-13.7-0.707-26.902-6.755-37.175-17.033    c-10.277-10.276-16.325-23.48-17.033-37.178c-0.688-13.307,3.79-25.491,12.606-34.306c8.226-8.227,19.384-12.675,31.652-12.675    c0.878,0,1.765,0.022,2.654,0.068c13.698,0.708,26.902,6.756,37.178,17.033C408.417,259.708,410.403,291.777,391.916,310.265z" fill="#FFFFFF"/>
	</g>
</g>
<g>
	<g>
		<path d="M212.181,220.155c-12.887-12.887-30.48-19.435-49.538-18.46c-18.667,0.965-36.546,9.092-50.341,22.887    c-28.757,28.757-30.743,73.563-4.427,99.88c12.393,12.394,28.884,18.509,45.872,18.509c19.083,0,38.793-7.721,54.007-22.936    c13.794-13.794,21.923-31.674,22.887-50.341C231.624,250.637,225.069,233.043,212.181,220.155z M210.59,268.659    c-0.708,13.699-6.756,26.902-17.033,37.178c-20.929,20.929-52.997,22.915-71.485,4.427c-18.489-18.488-16.502-50.556,4.427-71.485    c10.277-10.276,23.481-16.325,37.179-17.033c13.308-0.688,25.49,3.79,34.306,12.607C206.8,243.169,211.277,255.353,210.59,268.659    z" fill="#FFFFFF"/>
	</g>
</g>
<g>
	<g>
		<path d="M180.097,266.906c-10.697-10.696-28.703-10.097-40.137,1.335c-3.92,3.92-3.92,10.277,0,14.198    c1.961,1.96,4.529,2.94,7.098,2.94s5.139-0.981,7.099-2.94c3.544-3.544,8.922-4.157,11.743-1.335    c3.92,3.919,10.277,3.919,14.197,0C184.017,277.183,184.017,270.827,180.097,266.906z" fill="#FFFFFF"/>
	</g>
</g>
<g>
	<g>
		<path d="M374.025,268.237c-11.438-11.425-29.442-12.021-40.132-1.331c-3.921,3.921-3.922,10.277-0.001,14.198    c3.92,3.919,10.277,3.92,14.197,0c2.819-2.819,8.198-2.205,11.749,1.339c1.961,1.958,4.527,2.936,7.094,2.936    c2.571,0,5.143-0.983,7.103-2.945C377.952,278.512,377.947,272.155,374.025,268.237z" fill="#FFFFFF"/>
	</g>
</g>
<g>
	<g>
		<path d="M498.311,89.111c-11.291-14.9-28.06-25.119-47.218-28.774c-19.16-3.661-38.516-0.342-54.5,9.35    c-16.319,9.894-27.189,25.204-30.609,43.108c-1.401,7.339-1.419,14.651-0.264,21.717c-32.393-18.063-70.215-27.763-109.75-27.763    c-39.508,0-77.304,9.688-109.684,27.726c1.15-7.055,1.129-14.353-0.27-21.68c-3.419-17.904-14.289-33.214-30.609-43.108    c-15.985-9.69-35.34-13.013-54.498-9.35c-19.161,3.656-35.93,13.875-47.219,28.774c-11.526,15.212-15.99,33.451-12.57,51.354    c6.094,31.912,35.963,53.903,70.031,53.903c3.169,0,6.378-0.213,9.604-0.603c-17.372,25.921-26.627,55.418-26.627,86.174    c0,46.568,21.206,90.253,59.712,123.004c38.04,32.356,88.516,50.175,142.129,50.175c53.613,0,104.089-17.819,142.13-50.175    c38.505-32.752,59.711-76.436,59.711-123.004c0-30.76-9.257-60.258-26.632-86.182c3.249,0.396,6.477,0.611,9.67,0.611    c34.063,0,63.937-21.993,70.03-53.903C514.3,122.561,509.836,104.322,498.311,89.111z M71.117,174.292    c-24.602-0.002-46.016-15.289-50.276-37.594c-2.339-12.246,0.805-24.84,8.852-35.462C37.977,90.303,50.4,82.782,64.675,80.057    c3.831-0.732,7.663-1.094,11.449-1.094c10.322,0,20.292,2.689,28.873,7.893c11.395,6.909,18.958,17.459,21.297,29.706    c4.904,25.682-14.759,51.096-43.833,56.651C78.64,173.942,74.844,174.292,71.117,174.292z M255.97,393.318    c-17.003,0-27.326-7.181-27.326-10.34c0-3.161,10.324-10.351,27.326-10.351c17.008,0,27.336,7.189,27.336,10.351    C283.306,386.137,272.978,393.318,255.97,393.318z M437.734,279.938c-0.001,81.584-76.152,148.462-171.725,152.866v-20.038    c21.881-2.798,37.375-14.671,37.375-29.788c0-17.347-20.384-30.429-47.414-30.429c-27.025,0-47.404,13.081-47.404,30.429    c0,15.117,15.489,26.99,37.365,29.787v20.039C150.358,428.4,74.206,361.521,74.206,279.938    c0-84.427,81.539-153.113,181.764-153.113C356.195,126.825,437.734,195.511,437.734,279.938z M491.158,136.698    c-4.905,25.682-32.545,42.067-61.62,36.514c-29.075-5.555-48.739-30.969-43.835-56.651c2.339-12.247,9.902-22.797,21.297-29.706    c8.582-5.204,18.549-7.892,28.873-7.892c3.786,0,7.622,0.361,11.452,1.094c14.273,2.724,26.695,10.245,34.979,21.178    C490.353,111.858,493.497,124.451,491.158,136.698z" fill="#FFFFFF"/>
	</g>
</g>
<g>
	<g>
		<path d="M226.888,147.106c-12.919,0-12.94,20.078,0,20.078C239.807,167.184,239.828,147.106,226.888,147.106z" fill="#FFFFFF"/>
	</g>
</g>
</svg>
